<svg width="32" height="32" viewBox="0 0 32 32" fill="none" xmlns="http://www.w3.org/2000/svg">
<path d="M27.5486 25.8352C14.595 31.9999 6.5559 26.842 1.40981 23.7092C1.09137 23.5118 0.550136 23.7554 1.01973 24.2948C2.73415 26.3736 8.35267 31.384 15.6865 31.384C23.0253 31.384 27.3913 27.3796 27.9374 26.681C28.4799 25.9884 28.0967 25.6063 27.5484 25.8352H27.5486ZM31.1865 23.8261C30.8387 23.3731 29.0713 23.2886 27.9591 23.4253C26.8451 23.558 25.173 24.2388 25.3184 24.6476C25.393 24.8007 25.5453 24.732 26.3105 24.6632C27.0779 24.5866 29.2275 24.3153 29.6755 24.9009C30.1255 25.4905 28.9898 28.2992 28.7824 28.7522C28.582 29.2052 28.859 29.322 29.2354 29.0203C29.6067 28.7187 30.2787 27.9377 30.7298 26.8324C31.1777 25.7212 31.4508 24.171 31.1864 23.8261H31.1865Z" fill="#FF9900"/>
<path fill-rule="evenodd" clip-rule="evenodd" d="M18.8395 13.256C18.8395 14.8735 18.8804 16.2225 18.0628 17.659C17.4029 18.827 16.3576 19.5452 15.1897 19.5452C13.5955 19.5452 12.667 18.3306 12.667 16.5378C12.667 12.999 15.8378 12.3567 18.8395 12.3567V13.256ZM23.0265 23.3761C22.752 23.6213 22.3549 23.6389 22.0455 23.4753C20.6673 22.3308 20.422 21.7994 19.6629 20.7073C17.3855 23.0315 15.7737 23.7264 12.8189 23.7264C9.32678 23.7264 6.60547 21.5716 6.60547 17.2561C6.60547 13.8867 8.43338 11.5917 11.0318 10.4705C13.286 9.47768 16.4336 9.30252 18.8395 9.02815V8.49086C18.8395 7.50391 18.9154 6.33602 18.3373 5.48348C17.8292 4.71847 16.8599 4.40311 16.0072 4.40311C14.4247 4.40311 13.0115 5.21478 12.667 6.89658C12.5968 7.2704 12.3225 7.63833 11.9487 7.6558L7.91935 7.22375C7.58072 7.14768 7.20702 6.87331 7.30044 6.3535C8.22892 1.47168 12.6377 0 16.5852 0C18.6058 0 21.2452 0.537295 22.8395 2.06732C24.8601 3.95346 24.6673 6.47031 24.6673 9.2091V15.6794C24.6673 17.624 25.4732 18.4765 26.2323 19.5277C26.5009 19.9014 26.5593 20.3512 26.2206 20.6314C25.3738 21.3379 23.8672 22.6519 23.0381 23.3878L23.0264 23.3761" fill="black"/>
<path d="M27.5486 25.8352C14.595 31.9999 6.5559 26.842 1.40981 23.7092C1.09137 23.5118 0.550136 23.7554 1.01973 24.2948C2.73415 26.3736 8.35267 31.384 15.6865 31.384C23.0253 31.384 27.3913 27.3796 27.9374 26.681C28.4799 25.9884 28.0967 25.6063 27.5484 25.8352H27.5486ZM31.1865 23.8261C30.8387 23.3731 29.0713 23.2886 27.9591 23.4253C26.8451 23.558 25.173 24.2388 25.3184 24.6476C25.393 24.8007 25.5453 24.732 26.3105 24.6632C27.0779 24.5866 29.2275 24.3153 29.6755 24.9009C30.1255 25.4905 28.9898 28.2992 28.7824 28.7522C28.582 29.2052 28.859 29.322 29.2354 29.0203C29.6067 28.7187 30.2787 27.9377 30.7298 26.8324C31.1777 25.7212 31.4508 24.171 31.1864 23.8261H31.1865Z" fill="#FF9900"/>
<path fill-rule="evenodd" clip-rule="evenodd" d="M18.8395 13.256C18.8395 14.8735 18.8804 16.2225 18.0628 17.659C17.4029 18.827 16.3576 19.5452 15.1897 19.5452C13.5955 19.5452 12.667 18.3306 12.667 16.5378C12.667 12.999 15.8378 12.3567 18.8395 12.3567V13.256ZM23.0265 23.3761C22.752 23.6213 22.3549 23.6389 22.0455 23.4753C20.6673 22.3308 20.422 21.7994 19.6629 20.7073C17.3855 23.0315 15.7737 23.7264 12.8189 23.7264C9.32678 23.7264 6.60547 21.5716 6.60547 17.2561C6.60547 13.8867 8.43338 11.5917 11.0318 10.4705C13.286 9.47768 16.4336 9.30252 18.8395 9.02815V8.49086C18.8395 7.50391 18.9154 6.33602 18.3373 5.48348C17.8292 4.71847 16.8599 4.40311 16.0072 4.40311C14.4247 4.40311 13.0115 5.21478 12.667 6.89658C12.5968 7.2704 12.3225 7.63833 11.9487 7.6558L7.91935 7.22375C7.58072 7.14768 7.20702 6.87331 7.30044 6.3535C8.22892 1.47168 12.6377 0 16.5852 0C18.6058 0 21.2452 0.537295 22.8395 2.06732C24.8601 3.95346 24.6673 6.47031 24.6673 9.2091V15.6794C24.6673 17.624 25.4732 18.4765 26.2323 19.5277C26.5009 19.9014 26.5593 20.3512 26.2206 20.6314C25.3738 21.3379 23.8672 22.6519 23.0381 23.3878L23.0264 23.3761" fill="black"/>
</svg>
