<svg width="49" height="37" viewBox="0 0 49 37" fill="none" xmlns="http://www.w3.org/2000/svg">
<path d="M12.9197 9.10522C11.5106 10.9933 10.5619 13.2185 10.0639 15.7667C9.93548 16.3478 10.0323 16.9467 10.5412 17.3573C10.9822 17.7131 11.615 17.8198 12.2798 17.8198C14.2902 17.8198 16.1559 18.6739 17.8915 20.4756L17.9029 20.4874L17.9148 20.4986C19.7178 22.1878 20.6041 24.2069 20.6041 26.5908C20.6041 29.0688 19.6699 31.2371 17.7585 33.1221C15.9591 34.8967 13.7147 35.7897 10.9787 35.7897C8.45024 35.7897 6.24591 34.9064 4.33793 33.1167C2.40093 31.2045 1.27309 29.0932 0.911845 26.7775C0.162956 21.9768 0.95476 17.2649 3.30699 12.6243C5.75882 7.88214 9.24185 4.16996 13.7635 1.47579L13.7725 1.47044L13.7813 1.4648C14.6814 0.887772 15.4535 0.639101 16.1109 0.639101C16.7513 0.639101 17.3485 0.874572 17.9202 1.39809C18.5077 1.93608 18.6402 2.36853 18.5872 2.72098C18.5276 3.11766 18.2048 3.64005 17.3845 4.26927L17.3845 4.26916L17.3739 4.27764C15.7798 5.55497 14.2961 7.16705 12.9197 9.10522ZM41.0919 1.47579L41.1009 1.47044L41.1097 1.4648C42.0099 0.887772 42.7819 0.639101 43.4394 0.639101C44.0798 0.639101 44.677 0.874572 45.2486 1.39809C45.8361 1.93608 45.9686 2.36852 45.9157 2.72098C45.8561 3.11766 45.5333 3.64005 44.713 4.26927L44.7129 4.26916L44.7023 4.27764C43.1082 5.55496 41.6246 7.16703 40.2482 9.1052C38.8391 10.9933 37.8904 13.2184 37.3924 15.7665C37.2688 16.3252 37.3368 16.9174 37.8106 17.3379C38.2313 17.7113 38.8408 17.8198 39.4637 17.8198C41.5781 17.8198 43.4906 18.6803 45.22 20.4756L45.2313 20.4874L45.2433 20.4986C47.0462 22.1878 47.9326 24.2069 47.9326 26.5908C47.9326 29.0688 46.9983 31.2371 45.0869 33.1221C43.2876 34.8967 41.0432 35.7897 38.3071 35.7897C35.7787 35.7897 33.5743 34.9064 31.6664 33.1167C29.7294 31.2045 28.6015 29.0932 28.2403 26.7775C27.4914 21.9768 28.2832 17.2648 30.6355 12.6242C33.0873 7.8821 36.5703 4.16995 41.0919 1.47579Z" fill="white" stroke="#34113F" stroke-width="1.2782"/>
</svg>
